<svg width="32" height="32" viewBox="0 0 32 32" fill="none" xmlns="http://www.w3.org/2000/svg">
<path d="M0.370833 8.00124C-1.35658 3.25006 3.25007 -1.3565 8.00125 0.370867L13.9655 2.53957C15.2797 3.01742 16.7202 3.01734 18.0345 2.53957L23.9988 0.370867C28.75 -1.35663 33.3566 3.24997 31.6292 8.00124L29.4604 13.9655L29.3768 14.2134C28.9849 15.4594 29.0125 16.8024 29.4604 18.0345L31.6292 23.9988L31.7054 24.2215C33.1883 28.8184 28.8185 33.1884 24.2215 31.7055L23.9988 31.6291L18.0345 29.4605C16.8026 29.0125 15.4597 28.9845 14.2139 29.3763L13.9655 29.4605L8.00125 31.6291C3.25002 33.3567 -1.35658 28.75 0.370833 23.9987L2.53958 18.0345C3.01739 16.7202 3.01748 15.2798 2.53958 13.9655L0.370833 8.00124ZM7.75832 1.04064C3.57526 -0.480318 -0.480308 3.5753 1.04061 7.75831L3.20887 13.7221C3.74391 15.1936 3.74391 16.8064 3.20887 18.2779L1.04061 24.2417C-0.480308 28.4247 3.57526 32.4805 7.75832 30.9594L13.722 28.7911C15.1935 28.2561 16.8065 28.2561 18.278 28.7911L24.2421 30.9599C28.4251 32.4805 32.4809 28.4251 30.9598 24.2422L28.7911 18.2779C28.2561 16.8064 28.2561 15.1935 28.7911 13.7221L30.9599 7.75783C32.4804 3.5749 28.4251 -0.480715 24.2422 1.04011L18.278 3.2089C16.8065 3.7439 15.1935 3.7439 13.722 3.2089L7.75832 1.04064ZM3.8438 9.77855C2.5001 6.08293 6.08293 2.50013 9.77851 3.84379L14.4174 5.53004C15.4397 5.90174 16.5603 5.90174 17.5826 5.53004L22.2215 3.84379C25.9172 2.50004 29.4999 6.08288 28.1562 9.77855L26.47 14.4175L26.404 14.6102C26.0992 15.5794 26.1215 16.6242 26.4699 17.5825L28.1562 22.2215C29.479 25.8593 26.0282 29.3878 22.3951 28.2158L22.2215 28.1562L17.5825 26.4699C16.6242 26.1215 15.5793 26.0991 14.6102 26.404L14.4175 26.4699L9.77851 28.1562C6.14078 29.4788 2.61231 26.0282 3.78423 22.395L3.8438 22.2215L5.53005 17.5825C5.90175 16.5603 5.90175 15.4397 5.53001 14.4175L3.8438 9.77855ZM9.16968 5.51679C6.89517 4.69016 4.69008 6.89512 5.51676 9.16971L7.20363 13.8091C7.71818 15.2244 7.71818 16.7756 7.20358 18.1908L5.51676 22.8303C4.69008 25.1049 6.89513 27.3098 9.16968 26.4832L13.8091 24.7964C15.2243 24.2819 16.7757 24.2819 18.1909 24.7964L22.8303 26.4832C25.1049 27.31 27.31 25.105 26.4832 22.8303L24.7964 18.1908C24.2818 16.7756 24.2819 15.2244 24.7964 13.8091L26.4832 9.16971C27.31 6.89503 25.105 4.69003 22.8303 5.51679L18.1908 7.20358C16.7757 7.71813 15.2243 7.71813 13.8092 7.20358L9.16968 5.51679ZM8.81657 12.324C8.02262 10.1403 10.1402 8.02274 12.324 8.81661L15.0646 9.81348C15.6686 10.033 16.3313 10.033 16.9354 9.81348L19.676 8.81661C21.8599 8.02257 23.9775 10.1401 23.1834 12.324L22.1865 15.0647L22.1148 15.2938C21.9706 15.8335 21.9944 16.4068 22.1865 16.9353L23.1834 19.6761L23.2493 19.8806C23.8451 21.9895 21.7916 23.9526 19.676 23.1834L16.9354 22.1866C16.3313 21.967 15.6687 21.9669 15.0646 22.1866L12.324 23.1834C10.2084 23.9525 8.15492 21.9894 8.75073 19.8806L8.81657 19.6761L9.81349 16.9353C10.0057 16.4068 10.0294 15.8335 9.88525 15.2938L9.81349 15.0646L8.81657 12.324ZM12.0805 9.48594C10.4652 8.89866 8.89862 10.4651 9.48595 12.0805L10.4827 14.8212C10.7595 15.5825 10.7595 16.4175 10.4827 17.1788L9.48595 19.9195C8.89862 21.5349 10.4651 23.1013 12.0805 22.5141L14.8212 21.5173C15.5825 21.2405 16.4176 21.2405 17.1788 21.5173L19.9195 22.5141C21.5349 23.1015 23.1014 21.535 22.514 19.9195L21.5173 17.1788C21.2404 16.4175 21.2405 15.5825 21.5173 14.8212L22.514 12.0806C23.1014 10.4651 21.5349 8.89848 19.9195 9.48594L17.1788 10.4827C16.4176 10.7595 15.5824 10.7595 14.8212 10.4827L12.0805 9.48594Z" fill="white"/>
</svg>
