<svg width="1669" height="1668" viewBox="0 0 1669 1668" fill="none" xmlns="http://www.w3.org/2000/svg">
<path d="M809.144 0.381353C1269.87 -13.4185 1654.44 349.02 1667.88 809.68C1681.32 1270.34 1318.52 1654.58 857.788 1667.66C397.559 1680.72 13.7854 1318.46 0.361639 858.318C-13.0631 398.166 348.94 14.1651 809.144 0.381353ZM1645.33 835.652C1630.43 401.585 1266.52 61.7167 832.389 76.4136C397.971 91.1199 57.7886 455.253 72.6917 889.594C87.5943 1323.94 451.935 1663.9 886.334 1648.81C1320.46 1633.72 1660.22 1269.73 1645.33 835.652ZM867.636 139.405C1280.15 132.837 1619.87 461.86 1626.43 874.302C1633 1286.74 1303.93 1626.41 891.423 1632.98C478.928 1639.54 139.206 1310.52 132.636 898.085C126.067 485.646 455.139 145.974 867.636 139.405ZM1603.2 899.533C1595.88 512.773 1276.21 205.261 889.395 212.873C502.987 220.477 195.824 539.687 203.14 926.038C210.457 1312.4 529.486 1619.75 915.904 1612.72C1302.73 1605.69 1610.53 1286.3 1603.2 899.533ZM909.239 284.915C1271.89 274.72 1574.16 560.352 1584.44 922.948C1594.73 1285.53 1309.13 1587.83 946.473 1598.2C583.71 1608.57 281.244 1322.9 270.958 960.177C260.674 597.465 546.466 295.112 909.239 284.915ZM1559.49 923.213C1534.31 586.72 1240.83 334.501 904.325 360.142C568.465 385.735 316.8 678.477 341.938 1014.32C367.077 1350.17 659.52 1602.19 995.444 1577.52C1332.03 1552.79 1584.69 1259.7 1559.49 923.213ZM950.573 417.757C1264.67 399.259 1534.19 639.108 1552.21 953.183C1570.25 1267.27 1329.97 1536.38 1015.81 1553.95C702.316 1571.47 433.851 1331.84 415.854 1018.42C397.858 704.999 637.13 436.218 950.573 417.757ZM1525.62 932.601C1514.07 645.633 1272.16 422.301 985.137 433.621C697.787 444.955 474.102 687.176 485.674 974.479C497.248 1261.77 739.691 1485.23 1027.02 1473.41C1314.02 1461.62 1537.18 1219.56 1525.62 932.601ZM1004.21 447.176C1266.29 434.996 1488.64 637.53 1500.86 899.563C1513.07 1161.6 1310.53 1383.94 1048.46 1396.18C786.34 1408.44 563.918 1205.89 551.699 943.805C539.482 681.717 742.091 459.359 1004.21 447.176ZM1476.34 876.462C1466.33 637.647 1264.38 452.288 1025.55 462.721C787.33 473.129 602.528 674.425 612.501 912.622C622.478 1150.82 823.463 1335.97 1061.72 1326.43C1300.58 1316.86 1486.34 1115.27 1476.34 876.462ZM1046.58 477.408C1261.28 468.489 1442.58 635.264 1451.53 849.937C1460.49 1064.61 1293.73 1245.9 1079.03 1254.89C864.268 1263.89 682.89 1097.1 673.927 882.375C664.967 667.652 831.825 486.33 1046.58 477.408ZM1429.08 831.488C1423.11 638.285 1261.85 486.379 1068.6 491.938C874.779 497.516 722.301 659.347 728.284 853.119C734.27 1046.9 896.444 1199.02 1090.23 1192.63C1283.45 1186.25 1435.04 1024.69 1429.08 831.488ZM1073.43 504.93C1246.94 492.978 1397.23 624.075 1408.91 797.578C1420.61 971.085 1289.25 1121.14 1115.7 1132.56C942.539 1143.95 792.855 1012.97 781.194 839.846C769.534 666.721 900.298 516.858 1073.43 504.93ZM1380.61 773.318C1367.75 622.125 1234.68 510.012 1083.48 522.981C932.445 535.938 820.475 668.798 833.31 819.819C846.147 970.839 978.937 1082.9 1129.99 1070.19C1281.22 1057.47 1393.45 924.517 1380.61 773.318ZM1068.94 553.08C1202.68 545.101 1317.56 647.111 1325.42 780.851C1333.28 914.587 1231.16 1029.35 1097.39 1037.1C963.789 1044.83 849.178 942.876 841.326 809.302C833.477 675.729 935.344 561.05 1068.94 553.08ZM1276.54 773.503C1265.87 656.508 1162.39 570.289 1045.38 580.87C928.208 591.465 841.849 695.072 852.543 812.208C863.239 929.349 966.941 1015.6 1084.08 1004.81C1201.08 994.021 1287.23 890.499 1276.54 773.503ZM1027.02 608.169C1127.92 599.746 1216.42 674.979 1224.34 775.901C1232.26 876.818 1156.58 964.937 1055.6 972.349C955.337 979.708 867.969 904.689 860.108 804.476C852.238 704.267 926.84 616.536 1027.02 608.169ZM1171.37 770.697C1161.89 687.823 1086.9 628.398 1004.04 638.107C921.521 647.778 862.375 722.389 871.815 804.927C881.247 887.462 955.696 946.813 1038.27 937.619C1121.19 928.382 1180.84 853.576 1171.37 770.697ZM991.85 661.396C1060.72 655.074 1121.62 705.909 1127.71 774.794C1133.78 843.677 1082.72 904.395 1013.81 910.227C945.236 916.036 884.887 865.288 878.829 796.752C872.785 728.213 923.316 667.69 991.85 661.396ZM1078.56 774.497C1073.46 722.798 1027.54 684.93 975.801 689.749C923.662 694.607 885.417 740.959 890.565 793.068C895.715 845.177 942.29 883.15 994.378 877.708C1046.06 872.313 1083.67 826.196 1078.56 774.497ZM958.611 712.558C997.006 707.645 1032.09 734.837 1036.91 773.235C1041.74 811.633 1014.45 846.645 976.035 851.376C937.752 856.075 902.882 828.915 898.078 790.653C893.278 752.39 920.358 717.456 958.611 712.558Z" fill="#292929" fill-opacity="0.05"/>
</svg>
