<svg width="1312" height="797" viewBox="0 0 1312 797" fill="none" xmlns="http://www.w3.org/2000/svg">
<path d="M1067.06 0.502907C1674.64 -17.6957 2181.8 460.272 2199.52 1067.77C2217.24 1675.26 1738.81 2181.98 1131.21 2199.23C524.282 2216.45 18.1795 1738.73 0.476909 1131.91C-17.227 525.082 460.165 18.6801 1067.06 0.502907ZM2169.78 1102.02C2150.14 529.591 1670.23 81.389 1097.72 100.77C524.826 120.164 76.2112 600.365 95.8646 1173.15C115.517 1745.95 595.991 2194.28 1168.86 2174.37C1741.36 2154.47 2189.42 1674.45 2169.78 1102.02ZM1144.2 183.84C1688.2 175.178 2136.21 609.079 2144.86 1152.99C2153.52 1696.89 1719.56 2144.83 1175.57 2153.49C631.588 2162.15 183.578 1728.26 174.914 1184.35C166.252 640.447 600.216 192.503 1144.2 183.84ZM2114.22 1186.26C2104.57 676.22 1683.01 270.686 1172.89 280.725C663.317 290.752 258.245 711.712 267.893 1221.21C277.542 1730.73 698.262 2136.05 1207.85 2126.78C1717.98 2117.5 2123.89 1696.31 2114.22 1186.26ZM1199.06 375.731C1677.31 362.287 2075.93 738.965 2089.49 1217.14C2103.05 1695.3 1726.41 2093.96 1248.16 2107.63C769.769 2121.3 370.892 1744.57 357.328 1266.24C343.766 787.907 720.653 389.179 1199.06 375.731ZM2056.58 1217.49C2023.37 773.737 1636.35 441.123 1192.58 474.937C749.664 508.688 417.781 894.744 450.932 1337.64C484.084 1780.54 869.743 2112.89 1312.74 2080.36C1756.61 2047.74 2089.81 1661.24 2056.58 1217.49ZM1253.57 550.919C1667.79 526.523 2023.21 842.825 2046.98 1257.01C2070.77 1671.21 1753.89 2026.11 1339.61 2049.27C926.181 2072.38 572.142 1756.36 548.409 1343.04C524.676 929.72 840.216 575.264 1253.57 550.919ZM2011.92 1229.87C1996.68 851.43 1677.66 556.909 1299.15 571.838C920.207 586.785 625.222 906.215 640.484 1285.1C655.746 1663.97 975.468 1958.65 1354.39 1943.07C1732.87 1927.51 2027.17 1608.29 2011.92 1229.87ZM1324.31 589.714C1669.93 573.651 1963.15 840.743 1979.26 1186.3C1995.37 1531.87 1728.27 1825.07 1382.66 1841.22C1036.99 1857.38 743.668 1590.27 727.554 1244.65C711.443 899.016 978.633 605.78 1324.31 589.714ZM1946.92 1155.84C1933.73 840.898 1667.4 596.456 1352.45 610.215C1038.29 623.94 794.586 889.399 807.739 1203.52C820.894 1517.64 1085.94 1761.81 1400.14 1749.23C1715.15 1736.61 1960.11 1470.77 1946.92 1155.84ZM1380.18 629.582C1663.31 617.821 1902.41 837.756 1914.21 1120.86C1926.03 1403.95 1706.11 1643.03 1422.97 1654.89C1139.76 1666.76 900.563 1446.81 888.744 1163.63C876.927 880.467 1096.97 641.348 1380.18 629.582ZM1884.6 1096.53C1876.74 841.74 1664.07 641.413 1409.22 648.744C1153.62 656.1 952.538 869.515 960.428 1125.05C968.321 1380.6 1182.19 1581.21 1437.75 1572.78C1692.56 1564.38 1892.47 1351.31 1884.6 1096.53ZM1415.59 665.878C1644.41 650.116 1842.6 822.999 1858.01 1051.81C1873.43 1280.62 1700.21 1478.51 1471.34 1493.57C1242.98 1508.58 1045.58 1335.86 1030.2 1107.55C1014.82 879.241 1187.27 681.608 1415.59 665.878ZM1820.68 1019.82C1803.73 820.43 1628.25 672.58 1428.85 689.684C1229.67 706.77 1082 881.98 1098.93 1081.14C1115.86 1280.3 1290.98 1428.09 1490.17 1411.32C1689.61 1394.54 1837.62 1219.21 1820.68 1019.82ZM1409.66 729.377C1586.04 718.854 1737.54 853.38 1747.9 1029.75C1758.27 1206.12 1623.6 1357.47 1447.19 1367.68C1271 1377.87 1119.86 1243.42 1109.5 1067.27C1099.15 891.12 1233.49 739.888 1409.66 729.377ZM1683.44 1020.06C1669.37 865.772 1532.91 752.071 1378.59 766.024C1224.08 779.998 1110.19 916.629 1124.29 1071.1C1138.4 1225.58 1275.16 1339.33 1429.63 1325.09C1583.93 1310.87 1697.53 1174.35 1683.44 1020.06ZM1354.39 802.026C1487.44 790.918 1604.15 890.131 1614.6 1023.22C1625.05 1156.31 1525.24 1272.52 1392.08 1282.29C1259.85 1291.99 1144.64 1193.06 1134.27 1060.91C1123.89 928.755 1222.27 813.06 1354.39 802.026ZM1544.74 1016.36C1532.25 907.068 1433.36 828.701 1324.08 841.506C1215.26 854.26 1137.26 952.654 1149.71 1061.5C1162.15 1170.34 1260.33 1248.61 1369.22 1236.49C1478.57 1224.31 1557.23 1125.66 1544.74 1016.36ZM1308 872.22C1398.83 863.882 1479.14 930.92 1487.17 1021.76C1495.18 1112.6 1427.84 1192.67 1336.97 1200.37C1246.53 1208.03 1166.95 1141.1 1158.96 1050.72C1150.99 960.335 1217.62 880.52 1308 872.22ZM1422.36 1021.37C1415.62 953.191 1355.08 903.253 1286.84 909.608C1218.08 916.016 1167.65 977.141 1174.43 1045.86C1181.23 1114.58 1242.65 1164.66 1311.34 1157.48C1379.49 1150.37 1429.09 1089.55 1422.36 1021.37ZM1264.17 939.688C1314.8 933.208 1361.07 969.067 1367.43 1019.71C1373.79 1070.35 1337.81 1116.52 1287.15 1122.76C1236.66 1128.95 1190.68 1093.13 1184.34 1042.68C1178.01 992.216 1213.72 946.148 1264.17 939.688Z" fill="#292929" fill-opacity="0.05"/>
</svg>
