<svg width="1090" height="1266" viewBox="0 0 1090 1266" fill="none" xmlns="http://www.w3.org/2000/svg">
<g opacity="0.5">
<path d="M546.104 547.455L431.638 135.835L546.104 0L660.57 135.835L546.104 547.455Z" fill="#EFEFEF"/>
<path d="M554.861 544.645L703.526 278.534L829.478 268.139L819.154 394.957L554.861 544.645Z" fill="#EFEFEF"/>
<path d="M535.138 544.645L386.473 278.534L260.521 268.139L270.845 394.957L535.138 544.645Z" fill="#EFEFEF"/>
<path d="M619.13 591.191L915.934 285.568L1090 317.463L1030.4 485.193L619.13 591.191Z" fill="#EFEFEF"/>
<path d="M625.925 597.421L929.142 593.999L1001.06 698.63L886.819 753.037L625.925 597.421Z" fill="#EFEFEF"/>
<path d="M616.063 580.223L770.616 317.534L716.58 202.508L612.665 274.92L616.063 580.223Z" fill="#EFEFEF"/>
<path d="M618.025 676.735L1029.3 782.733L1088.9 950.463L914.83 982.358L618.025 676.735Z" fill="#EFEFEF"/>
<path d="M616.064 685.776L770.616 948.465L716.581 1063.49L612.665 991.079L616.064 685.776Z" fill="#EFEFEF"/>
<path d="M625.926 668.578L929.143 672L1001.06 567.369L886.82 512.962L625.926 668.578Z" fill="#EFEFEF"/>
<path d="M543.896 718.545L658.362 1130.17L543.896 1266L429.429 1130.17L543.896 718.545Z" fill="#EFEFEF"/>
<path d="M535.139 721.355L386.474 987.466L260.522 997.861L270.846 871.043L535.139 721.355Z" fill="#EFEFEF"/>
<path d="M554.862 721.355L703.527 987.466L829.479 997.861L819.155 871.043L554.862 721.355Z" fill="#EFEFEF"/>
<path d="M470.87 674.809L174.065 980.432L0 948.537L59.5994 780.807L470.87 674.809Z" fill="#EFEFEF"/>
<path d="M464.075 668.579L160.858 672.001L88.941 567.37L203.181 512.963L464.075 668.579Z" fill="#EFEFEF"/>
<path d="M473.937 685.777L319.384 948.466L373.42 1063.49L477.335 991.08L473.937 685.777Z" fill="#EFEFEF"/>
<path d="M471.974 589.265L60.7038 483.267L1.10437 315.537L175.17 283.642L471.974 589.265Z" fill="#EFEFEF"/>
<path d="M473.936 580.224L319.384 317.535L373.419 202.509L477.335 274.92L473.936 580.224Z" fill="#EFEFEF"/>
<path d="M464.074 597.422L160.857 594L88.9405 698.631L203.18 753.038L464.074 597.422Z" fill="#EFEFEF"/>
</g>
</svg>
