<svg width="2131" height="2131" viewBox="0 0 2131 2131" fill="none" xmlns="http://www.w3.org/2000/svg">
<path d="M980.275 950.186C989.11 917.65 1027.38 903.53 1055.23 922.533V922.533C1069.12 932.01 1086.89 933.71 1102.33 927.038V927.038C1133.27 913.66 1168.18 934.78 1170.68 968.401V968.401C1171.93 985.167 1181.68 1000.12 1196.52 1008.03V1008.03C1226.28 1023.88 1231.53 1064.34 1206.8 1087.26V1087.26C1194.47 1098.69 1188.86 1115.64 1191.93 1132.17V1132.17C1198.09 1165.32 1169.73 1194.65 1136.4 1189.61V1189.61C1119.77 1187.1 1103.02 1193.28 1092.01 1205.98V1205.98C1069.93 1231.46 1029.32 1227.58 1012.48 1198.38V1198.38C1004.08 1183.81 988.8 1174.57 972.001 1173.88V1173.88C938.315 1172.51 916.032 1138.34 928.362 1106.96V1106.96C934.511 1091.31 932.213 1073.6 922.275 1060.04V1060.04C902.346 1032.85 915.17 994.122 947.39 984.198V984.198C963.458 979.248 975.87 966.412 980.275 950.186V950.186Z" fill="url(#paint0_radial_127_1084)" fill-opacity="0.1"/>
<path d="M704.596 558.283C740.631 425.573 896.749 367.978 1010.34 445.49L1026.64 456.611C1083.28 495.266 1155.79 502.202 1218.73 474.987L1236.85 467.157C1363.07 412.587 1505.44 498.735 1515.66 635.87L1517.12 655.547C1522.22 723.936 1562 784.945 1622.53 817.192L1639.94 826.47C1761.31 891.132 1782.72 1056.15 1681.87 1149.65L1667.4 1163.06C1617.11 1209.69 1594.22 1278.83 1606.74 1346.25L1610.35 1365.65C1635.46 1500.85 1519.79 1620.48 1383.82 1599.93L1364.31 1596.98C1296.5 1586.73 1228.17 1611.94 1183.27 1663.77L1170.35 1678.69C1080.3 1782.62 914.651 1766.77 845.942 1647.65L836.083 1630.56C801.818 1571.16 739.505 1533.45 670.983 1530.66L651.268 1529.85C513.866 1524.25 422.976 1384.87 473.268 1256.88L480.484 1238.51C505.564 1174.68 496.193 1102.46 455.654 1047.14L443.99 1031.23C362.7 920.312 415.009 762.344 546.431 721.864L565.288 716.055C630.829 695.868 681.455 643.508 699.426 577.325L704.596 558.283Z" fill="url(#paint1_radial_127_1084)" fill-opacity="0.1"/>
<path d="M763.798 657.133C795.116 541.793 930.799 491.738 1029.52 559.103V559.103C1078.75 592.698 1141.76 598.726 1196.47 575.074V575.074C1306.18 527.646 1429.91 602.518 1438.79 721.704V721.704C1443.22 781.141 1477.8 834.164 1530.4 862.19V862.19C1635.88 918.388 1654.49 1061.81 1566.84 1143.06V1143.06C1523.13 1183.59 1503.23 1243.68 1514.12 1302.28V1302.28C1535.95 1419.78 1435.42 1523.75 1317.25 1505.89V1505.89C1258.31 1496.98 1198.93 1518.89 1159.9 1563.94V1563.94C1081.64 1654.27 937.672 1640.5 877.956 1536.97V1536.97C848.176 1485.34 794.019 1452.57 734.466 1450.14V1450.14C615.05 1445.27 536.056 1324.13 579.765 1212.9V1212.9C601.563 1157.42 593.418 1094.65 558.185 1046.57V1046.57C487.536 950.177 532.998 812.886 647.218 777.704V777.704C704.179 760.159 748.179 714.652 763.798 657.133V657.133Z" fill="url(#paint2_radial_127_1084)" fill-opacity="0.1"/>
<path d="M831.679 749.027C855.946 659.653 961.084 620.866 1037.58 673.066V673.066C1075.73 699.098 1124.56 703.769 1166.95 685.441V685.441C1251.96 648.691 1347.83 706.708 1354.72 799.062V799.062C1358.15 845.119 1384.94 886.205 1425.7 907.922V907.922C1507.43 951.469 1521.85 1062.6 1453.94 1125.57V1125.57C1420.07 1156.97 1404.65 1203.53 1413.09 1248.94V1248.94C1430 1339.99 1352.1 1420.55 1260.53 1406.71V1406.71C1214.87 1399.81 1168.85 1416.79 1138.61 1451.69V1451.69C1077.97 1521.69 966.41 1511.02 920.137 1430.8V1430.8C897.061 1390.79 855.097 1365.4 808.95 1363.51V1363.51C716.417 1359.74 655.206 1265.87 689.076 1179.68V1179.68C705.966 1136.69 699.655 1088.05 672.354 1050.8V1050.8C617.609 976.101 652.836 869.717 741.343 842.455V842.455C785.481 828.86 819.576 793.598 831.679 749.027V749.027Z" fill="url(#paint3_radial_127_1084)" fill-opacity="0.1"/>
<path d="M932.746 884.863C946.546 834.04 1006.33 811.984 1049.83 841.668V841.668C1071.52 856.471 1099.29 859.127 1123.4 848.705V848.705C1171.73 827.807 1226.26 860.798 1230.17 913.314V913.314C1232.12 939.504 1247.36 962.868 1270.53 975.217V975.217C1317.01 999.98 1325.21 1063.18 1286.59 1098.98V1098.98C1267.33 1116.83 1258.57 1143.31 1263.36 1169.13V1169.13C1272.98 1220.91 1228.68 1266.72 1176.61 1258.85V1258.85C1150.64 1254.93 1124.48 1264.58 1107.28 1284.43V1284.43C1072.8 1324.23 1009.36 1318.16 983.048 1272.55V1272.55C969.926 1249.8 946.063 1235.36 919.822 1234.29V1234.29C867.203 1232.14 832.396 1178.76 851.656 1129.75V1129.75C861.26 1105.31 857.671 1077.65 842.147 1056.46V1056.46C811.016 1013.99 831.048 953.492 881.377 937.99V937.99C906.476 930.259 925.864 910.208 932.746 884.863V884.863Z" fill="url(#paint4_radial_127_1084)" fill-opacity="0.1"/>
<path d="M980.275 950.186C989.11 917.65 1027.38 903.53 1055.23 922.533V922.533C1069.12 932.01 1086.89 933.71 1102.33 927.038V927.038C1133.27 913.66 1168.18 934.78 1170.68 968.401V968.401C1171.93 985.167 1181.68 1000.12 1196.52 1008.03V1008.03C1226.28 1023.88 1231.53 1064.34 1206.8 1087.26V1087.26C1194.47 1098.69 1188.86 1115.64 1191.93 1132.17V1132.17C1198.09 1165.32 1169.73 1194.65 1136.4 1189.61V1189.61C1119.77 1187.1 1103.02 1193.28 1092.01 1205.98V1205.98C1069.93 1231.46 1029.32 1227.58 1012.48 1198.38V1198.38C1004.08 1183.81 988.8 1174.57 972.001 1173.88V1173.88C938.315 1172.51 916.032 1138.34 928.362 1106.96V1106.96C934.511 1091.31 932.213 1073.6 922.275 1060.04V1060.04C902.346 1032.85 915.17 994.122 947.39 984.198V984.198C963.458 979.248 975.87 966.412 980.275 950.186V950.186Z" fill="url(#paint5_radial_127_1084)" fill-opacity="0.1"/>
<defs>
<radialGradient id="paint0_radial_127_1084" cx="0" cy="0" r="1" gradientUnits="userSpaceOnUse" gradientTransform="translate(1064.73 1065.06) rotate(23.1996) scale(282.193)">
<stop stop-color="#594F4B"/>
<stop offset="1" stop-color="#DDDDDD"/>
</radialGradient>
<radialGradient id="paint1_radial_127_1084" cx="0" cy="0" r="1" gradientUnits="userSpaceOnUse" gradientTransform="translate(1062.74 1064.14) rotate(23.1996) scale(1209.1)">
<stop stop-color="#594F4B"/>
<stop offset="1" stop-color="#DDDDDD"/>
</radialGradient>
<radialGradient id="paint2_radial_127_1084" cx="0" cy="0" r="1" gradientUnits="userSpaceOnUse" gradientTransform="translate(1063.19 1064.34) rotate(23.1996) scale(1000.38)">
<stop stop-color="#594F4B"/>
<stop offset="1" stop-color="#DDDDDD"/>
</radialGradient>
<radialGradient id="paint3_radial_127_1084" cx="0" cy="0" r="1" gradientUnits="userSpaceOnUse" gradientTransform="translate(1063.67 1064.57) rotate(23.1996) scale(775.172)">
<stop stop-color="#594F4B"/>
<stop offset="1" stop-color="#DDDDDD"/>
</radialGradient>
<radialGradient id="paint4_radial_127_1084" cx="0" cy="0" r="1" gradientUnits="userSpaceOnUse" gradientTransform="translate(1064.67 1064.29) rotate(23.1996) scale(440.797)">
<stop stop-color="#594F4B"/>
<stop offset="1" stop-color="#DDDDDD"/>
</radialGradient>
<radialGradient id="paint5_radial_127_1084" cx="0" cy="0" r="1" gradientUnits="userSpaceOnUse" gradientTransform="translate(1064.73 1065.06) rotate(23.1996) scale(282.193)">
<stop stop-color="#594F4B"/>
<stop offset="1" stop-color="#DDDDDD"/>
</radialGradient>
</defs>
</svg>
