<svg width="321" height="300" viewBox="0 0 321 300" fill="none" xmlns="http://www.w3.org/2000/svg">
<g filter="url(#filter0_i_3025_459)">
<path d="M156.811 51.6552C165.514 51.8644 170.976 49.8048 177.104 42.431C189.122 27.9709 170.672 4.33718e-05 156.811 0C143.282 0 126.074 28.5123 137.748 42.431C143.062 48.7678 148.543 51.4564 156.811 51.6552Z" fill="#BF7921"/>
</g>
<g filter="url(#filter1_i_3025_459)">
<path d="M315.573 212.536C335.229 206.082 296.711 180.677 276.112 170.954L261.966 195.779C272.638 202.399 295.917 218.991 315.573 212.536Z" fill="#BF7921"/>
</g>
<g filter="url(#filter2_i_3025_459)">
<path d="M5.42732 212.536C-14.2287 206.082 24.2892 180.677 44.8883 170.954L59.0347 195.779C48.3628 202.399 25.0833 218.991 5.42732 212.536Z" fill="#BF7921"/>
</g>
<g filter="url(#filter3_i_3025_459)">
<path d="M155 299.5C123.746 299.606 83.6323 263.196 83.6323 263.196L224.454 262.701C224.454 262.701 186.039 299.395 155 299.5Z" fill="#CA8228"/>
</g>
<g filter="url(#filter4_i_3025_459)">
<path d="M154.512 44.2759C107.471 44.2759 75.424 72.7123 56.1213 116.224C48.6323 133.106 47.4504 143.963 45.6672 162.345C42.535 194.631 35.6777 219.786 56.1212 244.747C80.9802 275.099 154.512 277.339 154.512 277.339C154.512 277.339 226.004 273.044 253.518 244.747C276.675 220.931 278.044 195.477 275.656 162.345C274.218 142.406 271.96 132.732 262.742 114.994C239.58 70.4255 205.552 44.2759 154.512 44.2759Z" fill="url(#paint0_radial_3025_459)"/>
</g>
<g filter="url(#filter5_d_3025_459)">
<path d="M237 101.518C246 102.336 258.276 113.518 258.276 108.22C258.276 107.518 245.145 94.9311 234.908 96.0176C227.105 96.8458 213 103.762 217.69 106.375C221 108.22 231.5 101.018 237 101.518Z" fill="#A5691C"/>
</g>
<g filter="url(#filter6_d_3025_459)">
<path d="M246.467 192.389C233.125 193.163 218.372 181.018 214.602 182.59C209.903 184.55 233.872 198.018 246.467 197.518C256.934 197.102 280.347 183.018 269.872 183.018C267.798 183.018 256.415 191.811 246.467 192.389Z" fill="#A5691C"/>
</g>
<rect x="121" y="84.501" width="76" height="76" rx="38" fill="white"/>
<path d="M169.12 125.609C169.12 133.253 165.844 136.865 158.928 136.865C152.012 136.865 148.876 133.253 148.876 125.609C148.876 117.993 152.488 115.137 158.956 115.137C165.396 115.137 169.12 117.993 169.12 125.609ZM158.956 120.625C156.94 120.625 155.764 121.661 155.764 125.665C155.764 129.893 156.94 130.985 158.956 130.985C161.028 130.985 162.176 129.865 162.176 125.665C162.176 121.689 161 120.625 158.956 120.625Z" fill="black"/>
<g filter="url(#filter7_d_3025_459)">
<path d="M158.04 168.66C144.166 168.566 127 154.516 125.448 154.516C118 154.516 143.212 173.88 158.04 174.001C173.076 174.124 194.5 157.501 191.247 154.516C189.015 152.468 172.135 168.755 158.04 168.66Z" fill="#A5691C"/>
</g>
<g filter="url(#filter8_d_3025_459)">
<path d="M158.04 76.8032C144.166 76.8973 130 94.1426 125.448 90.9469C122.5 88.8769 143.118 71.1241 158.04 71.0004C173.167 70.8751 194.622 88.5004 191.247 90.9469C189 92.5757 172.135 76.7076 158.04 76.8032Z" fill="#A5691C"/>
</g>
<rect x="41" y="108" width="76" height="76" rx="38" fill="white"/>
<path d="M89.1205 149.108C89.1205 156.752 85.8445 160.364 78.9285 160.364C72.0125 160.364 68.8765 156.752 68.8765 149.108C68.8765 141.492 72.4885 138.636 78.9565 138.636C85.3965 138.636 89.1205 141.492 89.1205 149.108ZM78.9565 144.124C76.9405 144.124 75.7645 145.16 75.7645 149.164C75.7645 153.392 76.9405 154.484 78.9565 154.484C81.0285 154.484 82.1765 153.364 82.1765 149.164C82.1765 145.188 81.0005 144.124 78.9565 144.124Z" fill="black"/>
<g filter="url(#filter9_d_3025_459)">
<path d="M82.2764 100.566C73.2764 101.385 61.0006 112.566 61.0006 107.269C61.0006 106.566 74.1309 93.9799 84.3684 95.0665C92.1716 95.8946 106.276 102.811 101.587 105.424C98.2763 107.269 87.7764 100.066 82.2764 100.566Z" fill="#A5691C"/>
</g>
<g filter="url(#filter10_d_3025_459)">
<path d="M73.9051 191.871C87.2467 192.645 102 180.5 105.77 182.073C110.469 184.032 86.5002 197.5 73.9051 197C63.4384 196.585 40.0251 182.5 50.5 182.5C52.5745 182.5 63.9567 191.294 73.9051 191.871Z" fill="#A5691C"/>
</g>
<path d="M106 226.5C106 226.5 136.826 230 158.5 230C178.5 230 206.5 226.5 206.5 226.5" stroke="#A5691C" stroke-width="4" stroke-linecap="round"/>
<rect x="203" y="108.518" width="76" height="76" rx="38" fill="white"/>
<path d="M251.12 149.626C251.12 157.27 247.844 160.882 240.928 160.882C234.012 160.882 230.876 157.27 230.876 149.626C230.876 142.01 234.488 139.154 240.956 139.154C247.396 139.154 251.12 142.01 251.12 149.626ZM240.956 144.642C238.94 144.642 237.764 145.678 237.764 149.682C237.764 153.91 238.94 155.002 240.956 155.002C243.028 155.002 244.176 153.882 244.176 149.682C244.176 145.706 243 144.642 240.956 144.642Z" fill="black"/>
<defs>
<filter id="filter0_i_3025_459" x="133.88" y="-4" width="47.1084" height="55.6694" filterUnits="userSpaceOnUse" color-interpolation-filters="sRGB">
<feFlood flood-opacity="0" result="BackgroundImageFix"/>
<feBlend mode="normal" in="SourceGraphic" in2="BackgroundImageFix" result="shape"/>
<feColorMatrix in="SourceAlpha" type="matrix" values="0 0 0 0 0 0 0 0 0 0 0 0 0 0 0 0 0 0 127 0" result="hardAlpha"/>
<feOffset dy="-7"/>
<feGaussianBlur stdDeviation="2"/>
<feComposite in2="hardAlpha" operator="arithmetic" k2="-1" k3="1"/>
<feColorMatrix type="matrix" values="0 0 0 0 0 0 0 0 0 0 0 0 0 0 0 0 0 0 0.25 0"/>
<feBlend mode="normal" in2="shape" result="effect1_innerShadow_3025_459"/>
</filter>
<filter id="filter1_i_3025_459" x="261.966" y="166.954" width="61.0347" height="47.0459" filterUnits="userSpaceOnUse" color-interpolation-filters="sRGB">
<feFlood flood-opacity="0" result="BackgroundImageFix"/>
<feBlend mode="normal" in="SourceGraphic" in2="BackgroundImageFix" result="shape"/>
<feColorMatrix in="SourceAlpha" type="matrix" values="0 0 0 0 0 0 0 0 0 0 0 0 0 0 0 0 0 0 127 0" result="hardAlpha"/>
<feOffset dx="2" dy="-4"/>
<feGaussianBlur stdDeviation="2"/>
<feComposite in2="hardAlpha" operator="arithmetic" k2="-1" k3="1"/>
<feColorMatrix type="matrix" values="0 0 0 0 0 0 0 0 0 0 0 0 0 0 0 0 0 0 0.25 0"/>
<feBlend mode="normal" in2="shape" result="effect1_innerShadow_3025_459"/>
</filter>
<filter id="filter2_i_3025_459" x="0" y="166.954" width="61.0347" height="47.0459" filterUnits="userSpaceOnUse" color-interpolation-filters="sRGB">
<feFlood flood-opacity="0" result="BackgroundImageFix"/>
<feBlend mode="normal" in="SourceGraphic" in2="BackgroundImageFix" result="shape"/>
<feColorMatrix in="SourceAlpha" type="matrix" values="0 0 0 0 0 0 0 0 0 0 0 0 0 0 0 0 0 0 127 0" result="hardAlpha"/>
<feOffset dx="2" dy="-4"/>
<feGaussianBlur stdDeviation="2"/>
<feComposite in2="hardAlpha" operator="arithmetic" k2="-1" k3="1"/>
<feColorMatrix type="matrix" values="0 0 0 0 0 0 0 0 0 0 0 0 0 0 0 0 0 0 0.25 0"/>
<feBlend mode="normal" in2="shape" result="effect1_innerShadow_3025_459"/>
</filter>
<filter id="filter3_i_3025_459" x="83.6323" y="258.701" width="140.822" height="40.7988" filterUnits="userSpaceOnUse" color-interpolation-filters="sRGB">
<feFlood flood-opacity="0" result="BackgroundImageFix"/>
<feBlend mode="normal" in="SourceGraphic" in2="BackgroundImageFix" result="shape"/>
<feColorMatrix in="SourceAlpha" type="matrix" values="0 0 0 0 0 0 0 0 0 0 0 0 0 0 0 0 0 0 127 0" result="hardAlpha"/>
<feOffset dy="-7"/>
<feGaussianBlur stdDeviation="2"/>
<feComposite in2="hardAlpha" operator="arithmetic" k2="-1" k3="1"/>
<feColorMatrix type="matrix" values="0 0 0 0 0 0 0 0 0 0 0 0 0 0 0 0 0 0 0.25 0"/>
<feBlend mode="normal" in2="shape" result="effect1_innerShadow_3025_459"/>
</filter>
<filter id="filter4_i_3025_459" x="42" y="34.6759" width="234.496" height="242.663" filterUnits="userSpaceOnUse" color-interpolation-filters="sRGB">
<feFlood flood-opacity="0" result="BackgroundImageFix"/>
<feBlend mode="normal" in="SourceGraphic" in2="BackgroundImageFix" result="shape"/>
<feColorMatrix in="SourceAlpha" type="matrix" values="0 0 0 0 0 0 0 0 0 0 0 0 0 0 0 0 0 0 127 0" result="hardAlpha"/>
<feOffset dy="-12"/>
<feGaussianBlur stdDeviation="4.8"/>
<feComposite in2="hardAlpha" operator="arithmetic" k2="-1" k3="1"/>
<feColorMatrix type="matrix" values="0 0 0 0 0 0 0 0 0 0 0 0 0 0 0 0 0 0 0.25 0"/>
<feBlend mode="normal" in2="shape" result="effect1_innerShadow_3025_459"/>
</filter>
<filter id="filter5_d_3025_459" x="215.856" y="95.9512" width="43.32" height="15.5875" filterUnits="userSpaceOnUse" color-interpolation-filters="sRGB">
<feFlood flood-opacity="0" result="BackgroundImageFix"/>
<feColorMatrix in="SourceAlpha" type="matrix" values="0 0 0 0 0 0 0 0 0 0 0 0 0 0 0 0 0 0 127 0" result="hardAlpha"/>
<feOffset dy="1"/>
<feGaussianBlur stdDeviation="0.45"/>
<feComposite in2="hardAlpha" operator="out"/>
<feColorMatrix type="matrix" values="0 0 0 0 0 0 0 0 0 0 0 0 0 0 0 0 0 0 0.25 0"/>
<feBlend mode="normal" in2="BackgroundImageFix" result="effect1_dropShadow_3025_459"/>
<feBlend mode="normal" in="SourceGraphic" in2="effect1_dropShadow_3025_459" result="shape"/>
</filter>
<filter id="filter6_d_3025_459" x="213.1" y="182.449" width="60.3088" height="16.982" filterUnits="userSpaceOnUse" color-interpolation-filters="sRGB">
<feFlood flood-opacity="0" result="BackgroundImageFix"/>
<feColorMatrix in="SourceAlpha" type="matrix" values="0 0 0 0 0 0 0 0 0 0 0 0 0 0 0 0 0 0 127 0" result="hardAlpha"/>
<feOffset dy="1"/>
<feGaussianBlur stdDeviation="0.45"/>
<feComposite in2="hardAlpha" operator="out"/>
<feColorMatrix type="matrix" values="0 0 0 0 0 0 0 0 0 0 0 0 0 0 0 0 0 0 0.25 0"/>
<feBlend mode="normal" in2="BackgroundImageFix" result="effect1_dropShadow_3025_459"/>
<feBlend mode="normal" in="SourceGraphic" in2="effect1_dropShadow_3025_459" result="shape"/>
</filter>
<filter id="filter7_d_3025_459" x="123.202" y="153.938" width="69.2761" height="21.4641" filterUnits="userSpaceOnUse" color-interpolation-filters="sRGB">
<feFlood flood-opacity="0" result="BackgroundImageFix"/>
<feColorMatrix in="SourceAlpha" type="matrix" values="0 0 0 0 0 0 0 0 0 0 0 0 0 0 0 0 0 0 127 0" result="hardAlpha"/>
<feOffset dy="0.5"/>
<feGaussianBlur stdDeviation="0.45"/>
<feComposite in2="hardAlpha" operator="out"/>
<feColorMatrix type="matrix" values="0 0 0 0 0 0 0 0 0 0 0 0 0 0 0 0 0 0 0.25 0"/>
<feBlend mode="normal" in2="BackgroundImageFix" result="effect1_dropShadow_3025_459"/>
<feBlend mode="normal" in="SourceGraphic" in2="effect1_dropShadow_3025_459" result="shape"/>
</filter>
<filter id="filter8_d_3025_459" x="124.264" y="71" width="68.2375" height="22.2418" filterUnits="userSpaceOnUse" color-interpolation-filters="sRGB">
<feFlood flood-opacity="0" result="BackgroundImageFix"/>
<feColorMatrix in="SourceAlpha" type="matrix" values="0 0 0 0 0 0 0 0 0 0 0 0 0 0 0 0 0 0 127 0" result="hardAlpha"/>
<feOffset dy="1"/>
<feGaussianBlur stdDeviation="0.45"/>
<feComposite in2="hardAlpha" operator="out"/>
<feColorMatrix type="matrix" values="0 0 0 0 0 0 0 0 0 0 0 0 0 0 0 0 0 0 0.25 0"/>
<feBlend mode="normal" in2="BackgroundImageFix" result="effect1_dropShadow_3025_459"/>
<feBlend mode="normal" in="SourceGraphic" in2="effect1_dropShadow_3025_459" result="shape"/>
</filter>
<filter id="filter9_d_3025_459" x="60.1005" y="95" width="43.32" height="15.5875" filterUnits="userSpaceOnUse" color-interpolation-filters="sRGB">
<feFlood flood-opacity="0" result="BackgroundImageFix"/>
<feColorMatrix in="SourceAlpha" type="matrix" values="0 0 0 0 0 0 0 0 0 0 0 0 0 0 0 0 0 0 127 0" result="hardAlpha"/>
<feOffset dy="1"/>
<feGaussianBlur stdDeviation="0.45"/>
<feComposite in2="hardAlpha" operator="out"/>
<feColorMatrix type="matrix" values="0 0 0 0 0 0 0 0 0 0 0 0 0 0 0 0 0 0 0.25 0"/>
<feBlend mode="normal" in2="BackgroundImageFix" result="effect1_dropShadow_3025_459"/>
<feBlend mode="normal" in="SourceGraphic" in2="effect1_dropShadow_3025_459" result="shape"/>
</filter>
<filter id="filter10_d_3025_459" x="46.9633" y="181.932" width="60.3088" height="16.982" filterUnits="userSpaceOnUse" color-interpolation-filters="sRGB">
<feFlood flood-opacity="0" result="BackgroundImageFix"/>
<feColorMatrix in="SourceAlpha" type="matrix" values="0 0 0 0 0 0 0 0 0 0 0 0 0 0 0 0 0 0 127 0" result="hardAlpha"/>
<feOffset dy="1"/>
<feGaussianBlur stdDeviation="0.45"/>
<feComposite in2="hardAlpha" operator="out"/>
<feColorMatrix type="matrix" values="0 0 0 0 0 0 0 0 0 0 0 0 0 0 0 0 0 0 0.25 0"/>
<feBlend mode="normal" in2="BackgroundImageFix" result="effect1_dropShadow_3025_459"/>
<feBlend mode="normal" in="SourceGraphic" in2="effect1_dropShadow_3025_459" result="shape"/>
</filter>
<radialGradient id="paint0_radial_3025_459" cx="0" cy="0" r="1" gradientUnits="userSpaceOnUse" gradientTransform="translate(159.248 188.172) rotate(90) scale(89.1667 139.371)">
<stop stop-color="#F3961F"/>
<stop offset="1" stop-color="#CA8228"/>
</radialGradient>
</defs>
</svg>
