<svg width="34" height="34" viewBox="0 0 34 34" fill="none" xmlns="http://www.w3.org/2000/svg">
<path d="M13.8228 2.35111C14.5186 -0.781678 18.9844 -0.781683 19.6801 2.3511L21.3508 9.87388C21.6034 11.0113 22.4917 11.8995 23.629 12.1521L31.1518 13.8228C34.2846 14.5186 34.2846 18.9844 31.1518 19.6801L23.629 21.3508C22.4917 21.6034 21.6034 22.4917 21.3508 23.629L19.6801 31.1518C18.9844 34.2846 14.5186 34.2846 13.8228 31.1518L12.1521 23.629C11.8995 22.4917 11.0113 21.6034 9.87388 21.3508L2.35111 19.6801C-0.781679 18.9844 -0.781685 14.5186 2.3511 13.8228L9.87388 12.1521C11.0113 11.8995 11.8995 11.0113 12.1521 9.87388L13.8228 2.35111Z" fill="#CFCFCF"/>
</svg>
