<svg width="887" height="175" viewBox="0 0 887 175" fill="none" xmlns="http://www.w3.org/2000/svg">
<path d="M0 75.8228C0 69.3832 5.18759 66.6667 11.0695 66.0893C12.7408 65.9252 14.4127 66.3056 15.919 67.048C20.355 69.2345 24.8962 72.1332 28.6699 75.9321C40.4187 87.7592 43.5008 123.923 43.5467 124.469C43.5926 125.015 43.5467 125.386 43.5467 125.386L43.5496 152.184C43.5496 166.758 35.5991 175 21.8341 175C8.06913 175 0 166.758 0 152.184V75.8228Z" fill="#282828"/>
<path d="M121.513 65.9719C127.975 65.8047 133.522 71.0607 132.373 77.4191C127.177 106.181 103.497 124.289 70.8659 124.289H64.6707C53.5759 124.289 44.1253 114.527 46.4063 103.675C48.2046 95.1205 51.5268 86.0059 58.0907 79.6181C70.8849 67.1672 100.409 66.5181 121.513 65.9719Z" fill="#282828"/>
<path d="M73.3435 0.86189C104.756 0.86189 127.257 18.8883 132.235 47.6868C133.335 54.0499 127.8 59.2937 121.343 59.0465C100.244 58.2384 70.6931 56.9203 58.056 45.5185C49.1531 37.4858 46.8404 24.7211 45.6772 13.3638C44.9965 6.71793 50.3737 0.86189 57.0579 0.86189H73.3435Z" fill="#282828"/>
<path d="M34.0103 0C38.5985 0 42.1684 4.00835 41.463 8.53948C39.3812 21.912 35.4833 39.1205 28.6699 45.9794C22.9244 51.7632 15.3996 55.4602 9.17607 57.7338C4.56692 59.4175 0 55.7773 0 50.8726V22.9352C0 8.36178 8.06913 0 21.8341 0H34.0103Z" fill="#282828"/>
<path d="M167.044 174.766C153.443 174.766 145.47 166.561 145.47 152.378V25.4354C145.47 11.1353 153.443 2.93034 167.044 2.93034H217.93C260.139 2.93034 282.886 23.7944 282.886 58.724C282.886 78.6504 273.74 96.4669 256.505 105.141L277.258 140.422C281.01 146.634 281.83 150.151 281.83 155.191C281.83 166.561 272.919 174.766 260.374 174.766C249.939 174.766 245.483 171.132 238.214 158.004L213.122 112.877H188.5V152.378C188.5 166.561 180.644 174.766 167.044 174.766ZM188.5 83.4561H213.709C229.537 83.4561 238.917 74.1963 238.917 59.5445C238.917 45.1273 228.951 35.3985 213.591 35.3985H188.5V83.4561Z" fill="#282828"/>
<path d="M371.362 175C320.007 175 287.763 141.477 287.763 87.5586C287.763 33.6403 320.124 0 371.362 0C422.6 0 454.843 33.6403 454.843 87.5586C454.843 141.477 422.6 175 371.362 175ZM371.362 140.07C395.398 140.07 411.109 119.675 411.109 87.5586C411.109 55.3248 395.398 34.9297 371.362 34.9297C347.326 34.9297 331.614 55.3248 331.614 87.5586C331.614 119.675 347.209 140.07 371.362 140.07Z" fill="#282828"/>
<path d="M529.132 175C492.433 175 470.273 161.169 463.238 143.704C461.714 140.188 461.011 136.554 461.011 133.038C461.011 122.254 468.749 114.987 479.653 114.987C487.978 114.987 493.606 117.917 499.116 126.356C504.862 136.906 516.235 141.36 529.836 141.36C546.602 141.36 557.507 133.858 557.507 123.543C557.507 114.166 550.354 109.36 530.305 105.492L512.835 102.21C479.184 95.8808 461.597 79.3537 461.597 53.5666C461.597 20.9812 489.854 0 528.781 0C561.141 0 584.826 12.4246 593.033 33.8747C594.206 36.8051 594.792 39.6182 594.792 43.1346C594.792 53.0978 587.522 59.779 576.735 59.8962C567.355 59.8962 561.493 56.497 556.451 48.292C550.941 37.7428 541.561 33.6403 529.132 33.6403C513.538 33.6403 504.393 40.6731 504.393 50.6363C504.393 59.5445 512.014 64.4675 530.422 67.9839L547.775 71.2659C583.888 78.1815 600.302 92.8332 600.302 119.441C600.302 153.433 573.687 175 529.132 175Z" fill="#282828"/>
<path d="M629.802 174.648C616.201 174.648 608.229 166.561 608.229 152.261V25.4354C608.229 11.1353 616.201 2.93034 629.802 2.93034H681.509C717.856 2.93034 742.479 26.4903 742.479 62.8265C742.479 98.9283 716.567 122.488 678.93 122.488H651.259V152.261C651.259 166.561 643.403 174.648 629.802 174.648ZM651.259 90.1373H669.902C688.192 90.1373 698.979 80.643 698.979 62.9437C698.979 45.3617 688.192 35.8674 670.136 35.8674H651.259V90.1373Z" fill="#282828"/>
<path d="M771.158 174.766C757.557 174.766 749.584 166.561 749.584 152.378V25.4354C749.584 11.1353 757.557 2.93034 771.158 2.93034H822.044C864.254 2.93034 887 23.7944 887 58.724C887 78.6504 877.855 96.4669 860.619 105.141L881.372 140.422C885.124 146.634 885.945 150.151 885.945 155.191C885.945 166.561 877.034 174.766 864.488 174.766C854.053 174.766 849.598 171.132 842.328 158.004L817.237 112.877H792.614V152.378C792.614 166.561 784.759 174.766 771.158 174.766ZM792.614 83.4561H817.823C833.652 83.4561 843.032 74.1963 843.032 59.5445C843.032 45.1273 833.065 35.3985 817.706 35.3985H792.614V83.4561Z" fill="#282828"/>
</svg>
