<svg width="49" height="49" viewBox="0 0 49 49" fill="none" xmlns="http://www.w3.org/2000/svg">
<path d="M20.3332 2.7834C21.5174 -0.929232 26.7707 -0.929229 27.9549 2.7834L31.5713 14.1214C31.9651 15.3558 32.9323 16.323 34.1666 16.7168L45.5047 20.3332C49.2173 21.5174 49.2173 26.7707 45.5047 27.9549L34.1666 31.5713C32.9323 31.9651 31.9651 32.9323 31.5713 34.1666L27.9549 45.5047C26.7707 49.2173 21.5174 49.2173 20.3332 45.5047L16.7168 34.1666C16.323 32.9323 15.3558 31.9651 14.1214 31.5713L2.7834 27.9549C-0.929232 26.7707 -0.929229 21.5174 2.7834 20.3332L14.1214 16.7168C15.3558 16.323 16.323 15.3558 16.7168 14.1214L20.3332 2.7834Z" fill="#D5F0AA"/>
</svg>
