<svg width="823" height="240" viewBox="0 0 823 240" fill="none" xmlns="http://www.w3.org/2000/svg">
<line x1="167" y1="5" x2="817" y2="5" stroke="#A2E05B" stroke-width="10" stroke-linecap="round"/>
<path d="M447.659 50.6992V66.6064C459.898 57.5517 474.908 49.2314 490.841 49.2314C519.474 49.2317 537.716 74.6823 537.716 108.209C537.716 145.651 513.932 175.508 476.062 175.508C465.44 175.508 455.741 172.326 447.659 167.432V208.301C447.659 225.92 449.276 233.262 456.896 235.954V239.38H414.869V235.954C422.489 233.262 424.106 225.92 424.106 208.301V85.9395C424.106 71.5009 420.642 69.0533 414.869 66.3613V62.9355L445.351 48.7422L447.659 50.6992ZM42.9502 5.42578C35.33 8.11773 33.7139 15.4601 33.7139 33.0801V108.698C33.7139 153.238 54.496 169.879 85.9004 169.879C105.297 169.879 130.467 154.706 130.467 107.23V47.7627C130.467 17.9069 124.925 9.34132 112.917 5.42578V2H143.859V5.42578C136.239 8.11779 134.623 15.4603 134.623 33.0801V106.741C134.623 155.93 110.377 175.753 76.6641 175.753C43.4124 175.753 9.23646 159.356 9.23633 106.741V33.0801C9.23633 15.4601 7.62018 8.11773 0 5.42578V2H42.9502V5.42578ZM668.735 50.6992V142.226C668.735 159.845 670.352 167.187 677.972 169.879V173.305H654.419C648.415 173.305 645.182 169.879 645.182 163.517V152.504C632.02 165.963 616.087 175.752 601.539 175.752C577.062 175.752 566.902 159.845 566.902 129.989V85.9395C566.902 71.5009 563.438 69.0533 557.665 66.3613V62.9355L588.146 48.7422L590.455 50.6992V126.808C590.455 152.993 594.381 165.964 612.161 165.964C622.552 165.964 633.867 159.356 645.182 147.364V85.9395C645.182 71.5009 641.718 69.0533 635.945 66.3613V62.9355L666.426 48.7422L668.735 50.6992ZM351.543 49.2314C364.705 49.2315 378.79 51.9226 386.642 55.3486L387.796 82.2686L385.025 82.7578C377.174 65.3826 362.858 52.6573 346.001 52.6572C331.453 52.6572 321.985 60.7329 321.985 71.2559C321.985 84.9602 333.531 90.8342 354.313 98.1758C372.787 104.783 393.107 110.657 393.107 135.618C393.107 154.217 382.023 175.263 348.541 175.263C331.684 175.263 315.751 169.879 306.977 163.761L304.667 131.702L306.977 131.213C316.906 154.706 333.532 171.102 354.083 171.347C368.4 171.591 377.636 161.558 377.636 150.301C377.636 134.639 365.859 128.521 345.77 121.913C321.524 114.082 306.515 106.985 306.515 84.96C306.515 66.3613 320.139 49.2314 351.543 49.2314ZM195.013 50.6992V71.2559C207.713 60.2434 224.339 49.2314 242.351 49.2314C263.595 49.2315 277.911 60.978 277.911 89.6104V142.226C277.911 159.845 279.528 167.187 287.147 169.879V173.305H245.121V169.879C252.741 167.187 254.358 159.845 254.358 142.226V94.0156C254.358 71.9907 245.352 59.0205 228.265 59.0205C217.412 59.0205 207.482 64.6483 195.013 75.416V142.226C195.013 159.845 196.63 167.187 204.25 169.879V173.305H162.224V169.879C169.843 167.187 171.46 159.845 171.46 142.226V85.9395C171.46 71.5011 167.996 69.0532 162.224 66.3613V62.9355L192.704 48.7422L195.013 50.6992ZM729.995 50.6992V71.2559C742.695 60.2435 759.321 49.2315 777.332 49.2314C798.576 49.2314 812.893 60.9779 812.893 89.6104V142.226C812.893 159.845 814.51 167.187 822.13 169.879V173.305H780.104V169.879C787.723 167.187 789.34 159.845 789.34 142.226V94.0156C789.34 71.9907 780.334 59.0205 763.246 59.0205C752.393 59.0206 742.464 64.6486 729.995 75.416V142.226C729.995 159.845 731.611 167.187 739.231 169.879V173.305H697.205V169.879C704.825 167.187 706.441 159.845 706.441 142.226V85.9395C706.441 71.501 702.978 69.0532 697.205 66.3613V62.9355L727.686 48.7422L729.995 50.6992ZM474.677 59.2646C464.517 59.2646 455.741 64.1591 447.659 70.7666V132.437C447.659 149.322 468.211 170.858 485.299 170.858C510.237 170.858 516.01 149.077 516.01 126.808C516.01 104.783 509.083 59.2649 474.677 59.2646Z" fill="white"/>
</svg>
