<svg width="4979" height="1896" viewBox="0 0 4979 1896" fill="none" xmlns="http://www.w3.org/2000/svg">
<path d="M0 1630.87V1604.26C6.68204 1604.26 10.6612 1599.29 15.9918 1594.86C58.5617 1559.68 189.8 1548.76 258.873 1543.71C452.727 1529.54 641.025 1576.41 812.055 1658.38L1016.95 1756.67C1212.23 1850.33 1448.05 1881.57 1666.53 1872.86C1846.95 1865.67 2012.19 1848.19 2163.1 1753.84L2272.87 1685.2C2424.15 1590.58 2569.58 1579.72 2748.35 1585.95C2888.97 1590.85 3025.39 1601.84 3164.73 1622.37C3344.4 1648.84 3518.96 1683.47 3696.59 1719.62C3921.76 1765.45 4151.05 1781 4380.49 1760.06C4513.53 1747.89 4638.76 1714.44 4754.08 1654.51C4878.41 1589.89 4977.44 1490.08 4954.39 1352.94C4937.35 1251.27 4908.07 1190.72 4820.75 1122.84C4769.32 1082.89 4711.66 1055.03 4648.9 1032.09L4435.9 965.661L4230.11 903.038C4200.22 893.984 4173.65 880.989 4149.1 863.778C4120.42 843.664 4106.6 814.841 4110.66 781.18C4119.97 704.042 4200.15 659.113 4275.83 629.737L4444.61 564.142C4482.07 549.558 4516.91 533.799 4550.17 512.786C4608.2 476.153 4654.38 415.603 4611.21 361.897C4548.44 283.791 4376.28 260.498 4267.57 255.314C3893.75 237.619 3582.47 300.795 3226.15 392.379L2762.46 511.542L2251.47 645.635C2073.23 692.429 1854.6 751.942 1674.41 758.785C1553.91 763.416 1417.57 751.804 1330.33 673.352C1285.28 632.848 1274.02 575.824 1299.84 523.016C1342.71 435.303 1450.9 358.994 1539.95 305.564L1710.3 203.405C1740.86 185.088 1768.86 166.011 1793.71 142.026C1811.66 124.677 1821.64 104.839 1815.34 80.5781C1810.31 61.1553 1793.49 42.1473 1768.11 34.1294C1726.44 20.9274 1682.82 15.9508 1635.6 16.1581C1426.05 17.1949 1217.56 39.0369 1012.44 82.4443C821.14 122.949 635.995 175.204 452.201 236.997L148.131 347.52C94.1492 367.357 45.8733 392.517 0 421.548V398.116C7.43283 399.913 12.0877 394.867 18.5445 390.997C59.763 366.459 100.906 346.138 146.93 329.341L434.558 224.486C622.781 160.688 812.506 107.12 1008.61 65.9246C1210.43 23.4849 1415.09 2.05764 1621.11 0.0531586C1674.94 -0.499802 1725.62 3.09444 1774.12 18.7156C1804.68 28.5998 1825.32 51.6168 1832.46 75.1867C1841.62 105.53 1829.68 132.142 1807.15 154.329C1779.6 181.493 1747.77 202.852 1713.61 223.449L1548.28 323.328C1434.01 392.31 1218.08 548.245 1348.8 660.358C1472.6 766.526 1708.2 743.164 1869.84 713.304C1979.39 693.052 2082.92 666.579 2190.73 638.516L2772.3 486.866L3213.54 374.339C3551.54 288.146 3837.89 227.666 4192.94 233.748C4310.82 235.753 4453.39 247.227 4555.65 296.095C4627.88 330.655 4675.02 390.858 4634.33 458.942C4598.52 518.938 4523.44 555.226 4453.77 582.39L4277.26 651.303C4212.69 676.532 4142.11 717.174 4133.1 781.594C4129.35 808.413 4140.39 831.637 4163.59 847.328C4185.43 862.119 4208.71 873.87 4234.91 881.957L4423.36 940.018L4645.44 1008.45C4751.3 1041.07 4878.49 1119.52 4931.19 1211.8C4966.48 1273.59 4981.57 1343.33 4978.64 1412.94C4973.91 1527.05 4873.68 1616.63 4769.25 1671.65C4654.23 1732.27 4529 1767.11 4395.88 1780.24C4153.68 1804.09 3911.1 1785.98 3673.54 1736.83C3507.24 1702.41 3343.87 1670.96 3175.7 1645.53C3018.18 1621.68 2862.47 1608.62 2703.37 1605.51C2524.31 1601.98 2412.22 1622.51 2264.01 1714.92L2158.6 1780.66C2019.18 1867.61 1851.15 1884.89 1685.3 1893.74C1471.78 1905.14 1212.23 1874.25 1022.13 1782.66L805.524 1678.22C634.719 1595.9 449.423 1548 255.569 1563.07C192.728 1567.9 132.139 1573.16 72.2261 1590.58C33.4853 1601.84 26.0524 1613.25 0.0750791 1631.01L0 1630.87Z" fill="#98E266" fill-opacity="0.5"/>
</svg>
