<svg width="158" height="48" viewBox="0 0 158 48" fill="none" xmlns="http://www.w3.org/2000/svg">
<path d="M20.5415 20.7566L16.2359 5.15013L20.5415 0L24.8471 5.15013L20.5415 20.7566Z" fill="#D64141"/>
<path d="M20.8709 20.6501L26.4629 10.5605L31.2006 10.1664L30.8122 14.9747L20.8709 20.6501Z" fill="#D64141"/>
<path d="M20.129 20.6501L14.5371 10.5605L9.79941 10.1664L10.1877 14.9747L20.129 20.6501Z" fill="#D64141"/>
<path d="M23.2884 22.4148L34.4526 10.8272L41 12.0365L38.7582 18.3959L23.2884 22.4148Z" fill="#D64141"/>
<path d="M23.544 22.651L34.9494 22.5213L37.6545 26.4883L33.3574 28.5512L23.544 22.651Z" fill="#D64141"/>
<path d="M23.173 21.999L28.9865 12.0392L26.9539 7.67802L23.0452 10.4235L23.173 21.999Z" fill="#D64141"/>
<path d="M23.2468 25.6582L38.7166 29.6771L40.9585 36.0365L34.411 37.2458L23.2468 25.6582Z" fill="#D64141"/>
<path d="M23.173 26.001L28.9865 35.9608L26.954 40.3219L23.0452 37.5765L23.173 26.001Z" fill="#D64141"/>
<path d="M23.544 25.3489L34.9494 25.4787L37.6545 21.5116L33.3574 19.4488L23.544 25.3489Z" fill="#D64141"/>
<path d="M20.4585 27.2434L24.7641 42.8499L20.4585 48L16.1529 42.8499L20.4585 27.2434Z" fill="#D64141"/>
<path d="M20.1291 27.3499L14.5371 37.4395L9.79944 37.8336L10.1878 33.0253L20.1291 27.3499Z" fill="#D64141"/>
<path d="M20.871 27.3499L26.4629 37.4395L31.2006 37.8336L30.8123 33.0253L20.871 27.3499Z" fill="#D64141"/>
<path d="M17.7116 25.5852L6.54742 37.1728L0 35.9635L2.24181 29.6041L17.7116 25.5852Z" fill="#D64141"/>
<path d="M17.456 25.3489L6.05062 25.4787L3.34549 21.5117L7.64258 19.4488L17.456 25.3489Z" fill="#D64141"/>
<path d="M17.827 26.001L12.0135 35.9608L14.0461 40.322L17.9548 37.5765L17.827 26.001Z" fill="#D64141"/>
<path d="M17.7532 22.3418L2.28335 18.3229L0.0415407 11.9635L6.58896 10.7542L17.7532 22.3418Z" fill="#D64141"/>
<path d="M17.827 21.999L12.0135 12.0392L14.046 7.67806L17.9548 10.4235L17.827 21.999Z" fill="#D64141"/>
<path d="M17.456 22.6511L6.0506 22.5213L3.34547 26.4884L7.64256 28.5512L17.456 22.6511Z" fill="#D64141"/>
<path d="M51.656 35V12.6H55.944L65.48 28.408H63.208L72.584 12.6H76.84L76.904 35H72.04L72.008 20.056H72.904L65.416 32.632H63.08L55.432 20.056H56.52V35H51.656ZM93.0985 35.384C91.3278 35.384 89.6852 35.096 88.1705 34.52C86.6772 33.944 85.3758 33.1333 84.2665 32.088C83.1785 31.0427 82.3252 29.816 81.7065 28.408C81.1092 27 80.8105 25.464 80.8105 23.8C80.8105 22.136 81.1092 20.6 81.7065 19.192C82.3252 17.784 83.1892 16.5573 84.2985 15.512C85.4078 14.4667 86.7092 13.656 88.2025 13.08C89.6958 12.504 91.3172 12.216 93.0665 12.216C94.8372 12.216 96.4585 12.504 97.9305 13.08C99.4238 13.656 100.715 14.4667 101.803 15.512C102.912 16.5573 103.776 17.784 104.395 19.192C105.013 20.5787 105.323 22.1147 105.323 23.8C105.323 25.464 105.013 27.0107 104.395 28.44C103.776 29.848 102.912 31.0747 101.803 32.12C100.715 33.144 99.4238 33.944 97.9305 34.52C96.4585 35.096 94.8478 35.384 93.0985 35.384ZM93.0665 30.968C94.0692 30.968 94.9865 30.7973 95.8185 30.456C96.6718 30.1147 97.4185 29.624 98.0585 28.984C98.6985 28.344 99.1892 27.5867 99.5305 26.712C99.8932 25.8373 100.075 24.8667 100.075 23.8C100.075 22.7333 99.8932 21.7627 99.5305 20.888C99.1892 20.0133 98.6985 19.256 98.0585 18.616C97.4398 17.976 96.7038 17.4853 95.8505 17.144C94.9972 16.8027 94.0692 16.632 93.0665 16.632C92.0638 16.632 91.1358 16.8027 90.2825 17.144C89.4505 17.4853 88.7145 17.976 88.0745 18.616C87.4345 19.256 86.9332 20.0133 86.5705 20.888C86.2292 21.7627 86.0585 22.7333 86.0585 23.8C86.0585 24.8453 86.2292 25.816 86.5705 26.712C86.9332 27.5867 87.4238 28.344 88.0425 28.984C88.6825 29.624 89.4292 30.1147 90.2825 30.456C91.1358 30.7973 92.0638 30.968 93.0665 30.968ZM124.579 12.6H129.763V35H124.579V12.6ZM114.403 35H109.219V12.6H114.403V35ZM124.963 25.816H114.019V21.432H124.963V25.816ZM132.118 35L142.102 12.6H147.222L157.238 35H151.798L143.606 15.224H145.654L137.43 35H132.118ZM137.11 30.2L138.486 26.264H150.006L151.414 30.2H137.11Z" fill="#1E1E1E"/>
</svg>
